Coordinates
version=1
nRows=8
nColumns=40
inDegrees=yes

Units are S.I. units (second, meters, Newtons, ...)
If the header above contains a line with 'inDegrees', this indicates whether rotational values are in degrees (yes) or radians (no).

endheader
time	pelvis_tilt	pelvis_list	pelvis_rotation	pelvis_tx	pelvis_ty	pelvis_tz	hip_flexion_r	hip_adduction_r	hip_rotation_r	knee_angle_r	knee_angle_r_beta	ankle_angle_r	subtalar_angle_r	mtp_angle_r	hip_flexion_l	hip_adduction_l	hip_rotation_l	knee_angle_l	knee_angle_l_beta	ankle_angle_l	subtalar_angle_l	mtp_angle_l	lumbar_extension	lumbar_bending	lumbar_rotation	arm_flex_r	arm_add_r	arm_rot_r	elbow_flex_r	pro_sup_r	wrist_flex_r	wrist_dev_r	arm_flex_l	arm_add_l	arm_rot_l	elbow_flex_l	pro_sup_l	wrist_flex_l	wrist_dev_l
      0.34000000	      1.36508596	     -5.14459521	     -0.90139066	     -0.12384270	      0.93813714	      0.23881051	      1.80561974	      6.66454321	    -12.21310700	     10.20982267	      0.17819502	      0.28831290	     -5.39757964	      0.00000000	     21.38540555	    -18.98556895	    -12.27656727	     71.03614892	      1.23981469	     -7.13629749	     -8.16912477	      0.00000000	     -2.31761672	      6.61297809	     -1.87992351	     43.94949378	    -16.10008019	     43.94949378	     75.25074960	     44.94881682	      0.00000000	      0.00000000	     43.94949378	    -16.10008019	     43.94949378	     75.25074960	     44.94881682	      0.00000000	      0.00000000
      0.34500000	      1.94970879	     -4.14541153	     -1.16825667	     -0.11726918	      0.94006789	      0.23923586	      0.52907611	      5.46289656	    -12.60541283	      9.94063500	      0.17349681	      1.11290097	     -3.35787077	      0.00000000	     20.83566485	    -17.78828274	    -13.13402576	     69.61799379	      1.21506321	     -6.41938650	     -7.61322558	      0.00000000	     -2.98432130	      5.38042019	     -1.37918149	     43.95625547	    -16.08839741	     43.95625547	     75.24555982	     44.95171007	      0.00000000	      0.00000000	     43.95625547	    -16.08839741	     43.95625547	     75.24555982	     44.95171007	      0.00000000	      0.00000000
      0.35000000	      1.85871405	     -4.18208228	     -1.26830645	     -0.11122381	      0.94010832	      0.23925958	      0.15403472	      5.48727814	    -12.77158125	      9.89265633	      0.17265942	      1.19975195	     -3.32542130	      0.00000000	     21.68261430	    -17.81488409	    -13.38437156	     68.91084386	      1.20272112	     -6.30774206	     -7.46457223	      0.00000000	     -3.01606892	      5.38742836	     -1.38197090	     43.95635934	    -16.08821845	     43.95635934	     75.24548081	     44.95175321	      0.00000000	      0.00000000	     43.95635934	    -16.08821845	     43.95635934	     75.24548081	     44.95175321	      0.00000000	      0.00000000
      0.35500000	      2.41838626	     -3.15539053	     -1.63896007	     -0.10462665	      0.94184478	      0.23994357	     -1.01919587	      4.22507617	    -13.21855061	      9.74048400	      0.17000352	      2.10202149	     -1.32253654	      0.00000000	     21.03577961	    -16.60751487	    -14.34706367	     67.26567772	      1.17400755	     -5.62457205	     -6.83143451	      0.00000000	     -3.61217706	      4.13969255	     -0.74953667	     43.96419174	    -16.07474911	     43.96419174	     75.23956523	     44.95491748	      0.00000000	      0.00000000	     43.96419174	    -16.07474911	     43.96419174	     75.23956523	     44.95491748	      0.00000000	      0.00000000
      0.36000000	      2.63318663	     -2.70685930	     -1.85103716	     -0.09833891	      0.94256562	      0.24023277	     -1.76295085	      3.65212222	    -13.52744866	      9.64462840	      0.16833052	      2.58829501	     -0.35152065	      0.00000000	     21.14017689	    -16.03999398	    -14.90071498	     65.98727353	      1.15169519	     -5.29376793	     -6.45535983	      0.00000000	     -3.89418605	      3.58227398	     -0.45808967	     43.97079221	    -16.06345078	     43.97079221	     75.23465865	     44.95743680	      0.00000000	      0.00000000	     43.97079221	    -16.06345078	     43.97079221	     75.23465865	     44.95743680	      0.00000000	      0.00000000
      0.36500000	      2.71156006	     -2.59508738	     -1.95399685	     -0.09204912	      0.94283602	      0.24023768	     -2.43710022	      3.49559374	    -13.72994072	      9.37240061	      0.16357925	      2.83950817	      0.30862410	      0.00000000	     21.52244272	    -15.84487197	    -15.22227054	     64.85015818	      1.13184878	     -4.81999883	     -5.83023087	      0.00000000	     -3.99788898	      3.42997880	     -0.42428725	     43.97270488	    -16.06018580	     43.97270488	     75.23325020	     44.95814262	      0.00000000	      0.00000000	     43.97270488	    -16.06018580	     43.97270488	     75.23325020	     44.95814262	      0.00000000	      0.00000000
      0.37000000	      3.05138148	     -1.97195019	     -2.26158102	     -0.08579521	      0.94376390	      0.24079299	     -3.27277180	      2.71009836	    -13.97655380	      9.33559252	      0.16293683	      3.32775508	      1.32456881	      0.00000000	     21.31090084	    -15.09284426	    -15.97870690	     63.25954500	      1.10408734	     -4.69266807	     -5.56522869	      0.00000000	     -4.44694351	      2.57295580	     -0.10103168	     43.97786878	    -16.05138872	     43.97786878	     75.22947399	     44.96000139	      0.00000000	      0.00000000	     43.97786878	    -16.05138872	     43.97786878	     75.22947399	     44.96000139	      0.00000000	      0.00000000
      0.37500000	      2.91221736	     -2.08075271	     -2.34254021	     -0.07963389	      0.94338138	      0.24073852	     -3.61126832	      2.80552581	    -14.13416249	      9.26323273	      0.16167391	      3.49653384	      1.41357229	      0.00000000	     22.01131663	    -15.15295341	    -16.21203045	     62.15157948	      1.08474970	     -4.58018342	     -5.26902458	      0.00000000	     -4.26753657	      2.67878829	     -0.15844887	     43.97810674	    -16.05098417	     43.97810674	     75.22930116	     44.96008503	      0.00000000	      0.00000000	     43.97810674	    -16.05098417	     43.97810674	     75.22930116	     44.96008503	      0.00000000	      0.00000000
